<svg width="30" height="30" viewBox="0 0 30 30" fill="none" xmlns="http://www.w3.org/2000/svg">
    <path d="M28.1249 5.625C28.1249 5.12772 27.9274 4.65081 27.5757 4.29917C27.2241 3.94754 26.7472 3.75 26.2499 3.75H12.5718L14.4468 5.625H28.1249ZM17.8124 22.5L16.8749 26.25L20.6249 25.3125L25.1155 20.8219L22.303 18.0094L17.8124 22.5ZM26.1374 15C25.8763 14.9998 25.6177 15.051 25.3764 15.1507C25.1352 15.2505 24.9159 15.3967 24.7312 15.5813L23.6343 16.6781L26.4468 19.4906L27.5437 18.3938C27.822 18.1158 28.0115 17.7615 28.0884 17.3757C28.1652 16.99 28.1258 16.5901 27.9753 16.2267C27.8247 15.8633 27.5697 15.5528 27.2425 15.3344C26.9153 15.116 26.5307 14.9997 26.1374 15Z" fill="white"/>
    <path d="M13.3969 7.22813L9.92813 3.75H3.75C3.25272 3.75 2.77581 3.94754 2.42417 4.29917C2.07254 4.65081 1.875 5.12772 1.875 5.625V24.375C1.875 24.8723 2.07254 25.3492 2.42417 25.7008C2.77581 26.0525 3.25272 26.25 3.75 26.25H14.9437L16.1156 21.5625L23.4375 14.2594C24.1531 13.5406 25.1233 13.133 26.1375 13.125C26.8405 13.1256 27.5292 13.3237 28.125 13.6969V7.5H14.0625C13.9391 7.50071 13.8168 7.47706 13.7026 7.43041C13.5884 7.38376 13.4845 7.31501 13.3969 7.22813ZM8.4375 5.625C8.62292 5.625 8.80418 5.67998 8.95835 5.783C9.11252 5.88601 9.23268 6.03243 9.30364 6.20373C9.37459 6.37504 9.39316 6.56354 9.35699 6.7454C9.32081 6.92725 9.23152 7.0943 9.10041 7.22541C8.9693 7.35652 8.80225 7.44581 8.6204 7.48199C8.43854 7.51816 8.25004 7.49959 8.07873 7.42864C7.90743 7.35768 7.76101 7.23752 7.658 7.08335C7.55498 6.92918 7.5 6.74792 7.5 6.5625C7.5 6.31386 7.59877 6.0754 7.77459 5.89959C7.9504 5.72377 8.18886 5.625 8.4375 5.625ZM4.6875 7.5C4.50208 7.5 4.32082 7.44502 4.16665 7.342C4.01248 7.23899 3.89232 7.09257 3.82136 6.92127C3.75041 6.74996 3.73184 6.56146 3.76801 6.3796C3.80419 6.19775 3.89348 6.0307 4.02459 5.89959C4.1557 5.76848 4.32275 5.67919 4.5046 5.64301C4.68646 5.60684 4.87496 5.62541 5.04627 5.69636C5.21757 5.76732 5.36399 5.88748 5.467 6.04165C5.57002 6.19582 5.625 6.37708 5.625 6.5625C5.625 6.81114 5.52623 7.0496 5.35041 7.22541C5.1746 7.40123 4.93614 7.5 4.6875 7.5ZM7.5 21.5625H6.5625C6.31386 21.5625 6.0754 21.4637 5.89959 21.2879C5.72377 21.1121 5.625 20.8736 5.625 20.625C5.625 20.3764 5.72377 20.1379 5.89959 19.9621C6.0754 19.7863 6.31386 19.6875 6.5625 19.6875H7.5C7.74864 19.6875 7.9871 19.7863 8.16291 19.9621C8.33873 20.1379 8.4375 20.3764 8.4375 20.625C8.4375 20.8736 8.33873 21.1121 8.16291 21.2879C7.9871 21.4637 7.74864 21.5625 7.5 21.5625ZM5.625 16.875C5.625 16.6264 5.72377 16.3879 5.89959 16.2121C6.0754 16.0363 6.31386 15.9375 6.5625 15.9375H13.125C13.3736 15.9375 13.6121 16.0363 13.7879 16.2121C13.9637 16.3879 14.0625 16.6264 14.0625 16.875C14.0625 17.1236 13.9637 17.3621 13.7879 17.5379C13.6121 17.7137 13.3736 17.8125 13.125 17.8125H6.5625C6.31386 17.8125 6.0754 17.7137 5.89959 17.5379C5.72377 17.3621 5.625 17.1236 5.625 16.875ZM14.0625 21.5625H11.25C11.0014 21.5625 10.7629 21.4637 10.5871 21.2879C10.4113 21.1121 10.3125 20.8736 10.3125 20.625C10.3125 20.3764 10.4113 20.1379 10.5871 19.9621C10.7629 19.7863 11.0014 19.6875 11.25 19.6875H14.0625C14.3111 19.6875 14.5496 19.7863 14.7254 19.9621C14.9012 20.1379 15 20.3764 15 20.625C15 20.8736 14.9012 21.1121 14.7254 21.2879C14.5496 21.4637 14.3111 21.5625 14.0625 21.5625ZM17.8125 17.8125H16.875C16.6264 17.8125 16.3879 17.7137 16.2121 17.5379C16.0363 17.3621 15.9375 17.1236 15.9375 16.875C15.9375 16.6264 16.0363 16.3879 16.2121 16.2121C16.3879 16.0363 16.6264 15.9375 16.875 15.9375H17.8125C18.0611 15.9375 18.2996 16.0363 18.4754 16.2121C18.6512 16.3879 18.75 16.6264 18.75 16.875C18.75 17.1236 18.6512 17.3621 18.4754 17.5379C18.2996 17.7137 18.0611 17.8125 17.8125 17.8125ZM21.5625 13.125C21.5625 13.3736 21.4637 13.6121 21.2879 13.7879C21.1121 13.9637 20.8736 14.0625 20.625 14.0625H6.5625C6.31386 14.0625 6.0754 13.9637 5.89959 13.7879C5.72377 13.6121 5.625 13.3736 5.625 13.125C5.625 12.8764 5.72377 12.6379 5.89959 12.4621C6.0754 12.2863 6.31386 12.1875 6.5625 12.1875H20.625C20.8736 12.1875 21.1121 12.2863 21.2879 12.4621C21.4637 12.6379 21.5625 12.8764 21.5625 13.125Z" fill="#8E6FE7"/>
</svg>
