<svg width="30" height="30" viewBox="0 0 30 30" fill="none" xmlns="http://www.w3.org/2000/svg">
    <path d="M21.8989 14.25C21.8989 15.38 21.6389 16.49 21.1389 17.51C20.6389 18.52 19.9189 19.41 19.0189 20.1C18.1189 20.79 17.0789 21.26 15.9789 21.48C14.8689 21.7 13.7289 21.67 12.6389 21.38L9.65893 23.1C9.50893 23.19 9.33893 23.23 9.15893 23.22C8.98893 23.21 8.81893 23.15 8.67893 23.04C8.53893 22.93 8.43893 22.79 8.37893 22.63C8.31893 22.47 8.31893 22.29 8.35893 22.12L9.11893 19.28C7.85893 17.92 7.14893 16.12 7.14893 14.27C7.14893 10.2 10.4589 6.89999 14.5189 6.89999C18.5789 6.89999 21.8889 10.21 21.8889 14.27L21.8989 14.25ZM12.4789 14.25C12.4789 14.02 12.3889 13.79 12.2189 13.63C12.0589 13.47 11.8289 13.37 11.5989 13.37C11.4289 13.37 11.2589 13.42 11.1089 13.52C10.9689 13.62 10.8489 13.75 10.7889 13.91C10.7189 14.07 10.7089 14.25 10.7389 14.42C10.7689 14.59 10.8589 14.75 10.9789 14.87C11.0989 14.99 11.2589 15.08 11.4289 15.11C11.5989 15.14 11.7789 15.13 11.9389 15.06C12.0989 14.99 12.2389 14.88 12.3289 14.74C12.4289 14.6 12.4789 14.43 12.4789 14.25ZM15.4089 14.25C15.4089 14.25 15.4089 14.19 15.4089 14.16C15.4089 14.13 15.4089 14.1 15.3989 14.07C15.3989 14.04 15.3889 14.01 15.3789 13.99C15.3789 13.96 15.3589 13.94 15.3489 13.91C15.3389 13.88 15.3289 13.86 15.3089 13.83C15.2989 13.8 15.2789 13.78 15.2689 13.76C15.2489 13.74 15.2389 13.71 15.2189 13.69C15.1989 13.67 15.1789 13.65 15.1589 13.63C15.1389 13.61 15.1189 13.59 15.0989 13.57C15.0789 13.55 15.0489 13.53 15.0289 13.52C15.0089 13.5 14.9789 13.49 14.9589 13.48C14.9289 13.47 14.9089 13.45 14.8789 13.44C14.8489 13.43 14.8289 13.42 14.7989 13.41C14.7489 13.39 14.6889 13.38 14.6289 13.38C14.5389 13.38 14.4589 13.38 14.3689 13.39C14.3389 13.39 14.3089 13.4 14.2889 13.41C14.2589 13.41 14.2389 13.43 14.2089 13.44C14.1789 13.45 14.1589 13.46 14.1289 13.48C14.0989 13.49 14.0789 13.51 14.0589 13.52C14.0089 13.55 13.9689 13.59 13.9289 13.63C13.9089 13.65 13.8889 13.67 13.8689 13.69C13.8489 13.71 13.8289 13.74 13.8189 13.76C13.7989 13.78 13.7889 13.81 13.7789 13.83C13.7689 13.86 13.7489 13.88 13.7389 13.91C13.7289 13.94 13.7189 13.96 13.7089 13.99C13.7089 14.02 13.6889 14.05 13.6889 14.07C13.6889 14.1 13.6789 14.13 13.6789 14.16C13.6789 14.19 13.6789 14.22 13.6789 14.25C13.6789 14.28 13.6789 14.31 13.6789 14.34C13.6789 14.37 13.6789 14.4 13.6889 14.42C13.6889 14.45 13.6989 14.48 13.7089 14.5C13.7089 14.53 13.7289 14.55 13.7389 14.58C13.7489 14.61 13.7589 14.63 13.7789 14.66C13.7889 14.69 13.8089 14.71 13.8189 14.73C13.8389 14.75 13.8489 14.78 13.8689 14.8C13.8889 14.82 13.9089 14.84 13.9289 14.86C13.9489 14.88 13.9689 14.9 13.9889 14.92C14.0089 14.94 14.0389 14.96 14.0589 14.97C14.0789 14.99 14.1089 15 14.1289 15.01C14.1789 15.04 14.2289 15.06 14.2889 15.08C14.3189 15.08 14.3489 15.1 14.3689 15.1C14.4289 15.11 14.4789 15.12 14.5389 15.12C14.7689 15.12 14.9989 15.03 15.1589 14.86C15.1989 14.82 15.2389 14.77 15.2689 14.73C15.2889 14.71 15.2989 14.68 15.3089 14.66C15.3189 14.63 15.3389 14.61 15.3489 14.58C15.3589 14.55 15.3689 14.53 15.3789 14.5C15.3789 14.47 15.3989 14.44 15.3989 14.42C15.3989 14.39 15.4089 14.36 15.4089 14.34C15.4089 14.31 15.4089 14.28 15.4089 14.25ZM18.3389 14.25C18.3389 14.02 18.2489 13.79 18.0789 13.63C17.9189 13.47 17.6889 13.37 17.4589 13.37C17.2889 13.37 17.1189 13.42 16.9689 13.52C16.8289 13.62 16.7089 13.75 16.6489 13.91C16.5789 14.07 16.5689 14.25 16.5989 14.42C16.6289 14.59 16.7189 14.75 16.8389 14.87C16.9589 14.99 17.1189 15.08 17.2889 15.11C17.4589 15.14 17.6389 15.13 17.7989 15.06C17.9589 14.99 18.0989 14.88 18.1889 14.74C18.2889 14.6 18.3389 14.43 18.3389 14.25Z" fill="#8E6FE7"/>
    <path d="M29.0489 16.1C29.0989 17.21 28.6989 18.29 27.9489 19.11C27.1989 19.93 26.1589 20.41 25.0489 20.46C24.9889 20.46 24.9189 20.46 24.8589 20.46C24.5689 20.46 24.2689 20.43 23.9789 20.37C23.1289 21.69 22.0089 22.81 20.6989 23.67C19.3889 24.53 17.9089 25.11 16.3589 25.36C16.1789 25.9 15.8089 26.35 15.3289 26.65C14.8489 26.95 14.2689 27.07 13.7089 26.99C13.1489 26.91 12.6289 26.64 12.2489 26.21C11.8689 25.79 11.6489 25.25 11.6189 24.68C11.5989 24.11 11.7689 23.55 12.1089 23.1C12.4489 22.65 12.9389 22.33 13.4989 22.2C14.0489 22.07 14.6289 22.14 15.1389 22.39C15.6489 22.64 16.0489 23.07 16.2789 23.59C18.4589 23.19 20.4289 22.03 21.8389 20.33C23.2589 18.62 24.0289 16.48 24.0189 14.26C24.0189 9.02 19.7589 4.76 14.5189 4.76C9.27889 4.76 5.03889 9.02 5.03889 14.25C5.03889 15.87 5.44889 17.46 6.23889 18.87C6.26889 18.92 6.28889 18.97 6.29889 19.02C6.37889 19.23 6.36889 19.46 6.27889 19.67C6.18889 19.88 6.01889 20.04 5.81889 20.13C5.30889 20.34 4.76889 20.45 4.20889 20.45C4.14889 20.45 4.07889 20.45 4.00889 20.45C2.89889 20.4 1.85889 19.91 1.10889 19.1C0.358889 18.28 -0.0311111 17.2 0.00888889 16.1C0.0288889 15.66 0.00888889 15.26 0.00888889 14.88C0.00888889 14.52 -0.0111111 14.15 0.00888889 13.76C0.0588889 12.68 0.518889 11.66 1.30889 10.91C2.08889 10.16 3.13889 9.75 4.21889 9.76C5.94889 5.79 9.91889 3 14.5289 3C19.1389 3 23.1089 5.79 24.8489 9.76C25.9289 9.76 26.9689 10.17 27.7589 10.91C28.5389 11.66 29.0089 12.68 29.0589 13.76C29.0789 14.15 29.0589 14.52 29.0589 14.88C29.0489 15.26 29.0389 15.66 29.0589 16.1H29.0489Z" fill="white"/>
</svg>
