<svg xmlns="http://www.w3.org/2000/svg" width="28" height="28" viewBox="0 0 28 28" fill="none">
    <path d="M23.2412 5.65792C21.5123 4.87707 19.6878 4.32024 17.8132 4.00137C17.7962 3.99825 17.7786 4.00049 17.763 4.00778C17.7473 4.01507 17.7344 4.02703 17.726 4.04196C17.4916 4.4522 17.2319 4.98734 17.0501 5.40798C15.0005 5.10603 12.9613 5.10603 10.9537 5.40798C10.7718 4.97801 10.5028 4.4522 10.2673 4.04196C10.2586 4.02734 10.2456 4.01565 10.2301 4.00841C10.2145 4.00117 10.1971 3.99871 10.1801 4.00137C8.27548 4.32413 6.45287 4.8895 4.75214 5.65792C4.73734 5.6641 4.72485 5.67465 4.71641 5.68811C1.25932 10.7702 0.312238 15.7273 0.776822 20.623C0.778905 20.6469 0.792603 20.6698 0.811509 20.6844C3.0924 22.3326 5.30188 23.3331 7.47027 23.9964C7.48713 24.0014 7.50512 24.0011 7.52184 23.9957C7.53856 23.9903 7.55321 23.98 7.56381 23.9662C8.07673 23.277 8.53397 22.5502 8.926 21.786C8.94912 21.7412 8.92704 21.6881 8.87975 21.6704C8.15449 21.3997 7.46391 21.0696 6.79959 20.6948C6.74704 20.6646 6.74282 20.5907 6.7912 20.5553C6.93138 20.4522 7.06913 20.346 7.20433 20.2367C7.21619 20.227 7.23054 20.2209 7.24577 20.2188C7.261 20.2168 7.2765 20.219 7.29053 20.2252C11.6547 22.1858 16.3794 22.1858 20.6921 20.2252C20.7062 20.2186 20.7218 20.2161 20.7373 20.218C20.7527 20.2198 20.7673 20.2259 20.7793 20.2356C20.9147 20.3455 21.0528 20.4521 21.1935 20.5552C21.2418 20.5906 21.2387 20.6646 21.1862 20.6948C20.5218 21.0769 19.8313 21.3996 19.105 21.6693C19.0938 21.6735 19.0836 21.68 19.0752 21.6883C19.0667 21.6967 19.0602 21.7067 19.0559 21.7177C19.0516 21.7287 19.0498 21.7404 19.0505 21.7522C19.0511 21.764 19.0543 21.7754 19.0598 21.7859C19.4603 22.5491 19.9175 23.2759 20.421 23.9651C20.442 23.9943 20.4798 24.0068 20.5145 23.9964C22.6934 23.3331 24.9029 22.3325 27.1838 20.6843C27.1936 20.6773 27.2018 20.6682 27.2077 20.6578C27.2137 20.6474 27.2174 20.6359 27.2185 20.6239C27.7745 14.964 26.2872 10.0475 23.2758 5.68908C23.2684 5.67497 23.2561 5.66392 23.2412 5.65792ZM9.57782 17.642C8.26391 17.642 7.18126 16.4551 7.18126 14.9974C7.18126 13.5397 8.24287 12.3528 9.57782 12.3528C10.9232 12.3528 11.9954 13.5501 11.9743 14.9974C11.9743 16.4551 10.9127 17.642 9.57782 17.642ZM18.4386 17.642C17.1248 17.642 16.0421 16.4551 16.0421 14.9974C16.0421 13.5397 17.1037 12.3528 18.4386 12.3528C19.784 12.3528 20.8562 13.5501 20.8352 14.9974C20.8352 16.4551 19.7841 17.642 18.4386 17.642Z" fill="white"/>
</svg>