<svg width="30" height="30" viewBox="0 0 30 30" fill="none" xmlns="http://www.w3.org/2000/svg">
    <path d="M26.7518 19.0314C26.6261 18.9606 26.4948 18.9003 26.3592 18.851V11.1277C26.4959 11.0904 26.6277 11.037 26.7518 10.9686C27.3009 10.6512 27.7019 10.1291 27.8669 9.5167C28.0319 8.90428 27.9476 8.25142 27.6323 7.70106C27.3112 7.15587 26.7883 6.75897 26.1769 6.59618C25.5654 6.43339 24.9145 6.51779 24.3648 6.83113C24.2397 6.90385 24.1224 6.98916 24.0147 7.08575L17.3417 3.23471C17.3526 3.08993 17.3526 2.94452 17.3417 2.79974C17.3417 2.16667 17.0902 1.55952 16.6425 1.11187C16.1949 0.664223 15.5877 0.412735 14.9547 0.412735C14.3216 0.412735 13.7144 0.664223 13.2668 1.11187C12.8191 1.55952 12.5676 2.16667 12.5676 2.79974C12.5567 2.94452 12.5567 3.08993 12.5676 3.23471L5.9795 7.08575C5.87179 6.98916 5.75448 6.90385 5.62941 6.83113C5.07969 6.51779 4.42873 6.43339 3.81728 6.59618C3.20583 6.75897 2.68301 7.15587 2.36186 7.70106C2.04659 8.25142 1.96223 8.90428 2.12727 9.5167C2.2923 10.1291 2.69328 10.6512 3.2424 10.9686C3.3665 11.037 3.49826 11.0904 3.63493 11.1277V18.851C3.49937 18.9003 3.36808 18.9606 3.2424 19.0314C2.69328 19.3488 2.2923 19.8709 2.12727 20.4833C1.96223 21.0957 2.04659 21.7486 2.36186 22.2989C2.52232 22.5628 2.73332 22.7923 2.98274 22.9744C3.23217 23.1564 3.51509 23.2874 3.81528 23.3598C3.99914 23.4296 4.19208 23.4724 4.38817 23.4871C4.80864 23.4871 5.22183 23.3774 5.58697 23.1689C5.71205 23.0962 5.82936 23.0108 5.93707 22.9143L12.6101 26.7653C12.5991 26.9101 12.5991 27.0555 12.6101 27.2003C12.6101 27.8333 12.8616 28.4405 13.3092 28.8881C13.7569 29.3358 14.364 29.5873 14.9971 29.5873C15.6302 29.5873 16.2373 29.3358 16.685 28.8881C17.1326 28.4405 17.3841 27.8333 17.3841 27.2003C17.3951 27.0555 17.3951 26.9101 17.3841 26.7653L24.0571 22.9143C24.1648 23.0108 24.2821 23.0962 24.4072 23.1689C24.7724 23.3774 25.1855 23.4871 25.606 23.4871C25.8142 23.4903 26.0217 23.4617 26.2213 23.4023C26.5215 23.3299 26.8044 23.1989 27.0539 23.0168C27.3033 22.8348 27.5143 22.6052 27.6748 22.3414C27.8358 22.0645 27.9398 21.7582 27.9806 21.4405C28.0213 21.1228 27.998 20.8001 27.9119 20.4916C27.8259 20.183 27.6789 19.8948 27.4796 19.6441C27.2804 19.3933 27.0329 19.1849 26.7518 19.0314ZM24.7679 18.8617C24.2289 19.042 23.7746 19.4136 23.4911 19.9063C23.2077 20.399 23.1146 20.9785 23.2296 21.5351L16.5354 25.3967C16.1108 25.0216 15.5637 24.8145 14.9971 24.8145C14.4305 24.8145 13.8834 25.0216 13.4588 25.3967L6.76456 21.5351C6.87957 20.9785 6.78653 20.399 6.50305 19.9063C6.21957 19.4136 5.76532 19.042 5.22627 18.8617V11.1277C5.76611 10.9417 6.21904 10.5643 6.49934 10.0669C6.78158 9.57196 6.87576 8.99184 6.76456 8.43308L13.4588 4.60326C13.8834 4.97841 14.4305 5.18546 14.9971 5.18546C15.5637 5.18546 16.1108 4.97841 16.5354 4.60326L23.2296 8.46491C23.1152 9.0224 23.2056 9.60244 23.4842 10.0987C23.7645 10.5961 24.2175 10.9736 24.7573 11.1596L24.7679 18.8617Z" fill="#8E6FE7"/>
    <path d="M13.774 15.7657L9 13.0074V18.0679C9.00042 18.2069 9.03679 18.3435 9.10557 18.4643C9.17435 18.5851 9.2732 18.6861 9.39253 18.7574L13.774 21.2824V15.7657Z" fill="white"/>
    <path d="M14.5697 14.3866L19.3437 11.6389L14.9728 9.10333C14.8493 9.03554 14.7106 9 14.5697 9C14.4288 9 14.2901 9.03554 14.1665 9.10333L9.79567 11.6389L14.5697 14.3866Z" fill="white"/>
    <path d="M20.1394 13.0074L15.3654 15.7657V21.2824L19.7468 18.7574C19.8662 18.6861 19.965 18.5851 20.0338 18.4643C20.1026 18.3435 20.1389 18.2069 20.1394 18.0679V13.0074Z" fill="white"/>
</svg>
