<svg xmlns="http://www.w3.org/2000/svg" width="28" height="28" viewBox="0 0 28 28" fill="none">
    <path d="M25.939 9.05609C25.8828 7.78084 25.6765 6.9042 25.381 6.14448C25.0762 5.33812 24.6073 4.61619 23.993 4.01603C23.3926 3.40653 22.6658 2.9329 21.8686 2.63294C21.1044 2.33757 20.2321 2.13128 18.9567 2.07511C17.6717 2.01407 17.2637 2 14.0047 2C10.7456 2 10.3377 2.01407 9.05743 2.07033C7.78198 2.12659 6.90513 2.33297 6.1455 2.62816C5.33875 2.9329 4.61669 3.40175 4.01641 4.01603C3.4068 4.61615 2.93332 5.34285 2.63306 6.13989C2.33763 6.9042 2.13135 7.77615 2.07512 9.05131C2.01411 10.3361 2 10.7439 2 14.0024C2 17.2609 2.01411 17.6687 2.07034 18.9487C2.12661 20.2239 2.33304 21.1006 2.62851 21.8603C2.93332 22.6667 3.4068 23.3886 4.01641 23.9888C4.61669 24.5983 5.34353 25.0719 6.14072 25.3718C6.90508 25.6672 7.7772 25.8735 9.05288 25.9297C10.3329 25.9861 10.741 26 14.0001 26C17.2592 26 17.6671 25.9861 18.9474 25.9297C20.2228 25.8735 21.0997 25.6673 21.8593 25.3718C22.6571 25.0634 23.3817 24.5918 23.9865 23.9871C24.5914 23.3823 25.0632 22.6579 25.3717 21.8603C25.667 21.096 25.8734 20.2239 25.9297 18.9487C25.9859 17.6687 26 17.2609 26 14.0024C26 10.7439 25.9952 10.336 25.939 9.05609ZM23.7774 18.8549C23.7257 20.027 23.5288 20.66 23.3646 21.0819C22.9613 22.1274 22.1313 22.9573 21.0855 23.3606C20.6635 23.5247 20.0259 23.7216 18.8581 23.773C17.592 23.8294 17.2123 23.8433 14.0094 23.8433C10.8066 23.8433 10.4221 23.8294 9.16055 23.773C7.98822 23.7216 7.35516 23.5247 6.93312 23.3606C6.41275 23.1683 5.93908 22.8635 5.55455 22.465C5.15596 22.0759 4.85116 21.607 4.6588 21.0867C4.49467 20.6647 4.29777 20.027 4.24633 18.8597C4.18987 17.5938 4.17599 17.214 4.17599 14.0117C4.17599 10.8095 4.18987 10.4251 4.24633 9.16397C4.29777 7.99187 4.49467 7.35893 4.6588 6.93697C4.85116 6.41646 5.15596 5.94297 5.55934 5.55843C5.94836 5.15991 6.4173 4.85516 6.9379 4.66308C7.35994 4.49898 7.99778 4.30207 9.16533 4.25045C10.4314 4.19419 10.8114 4.18012 14.014 4.18012C17.2216 4.18012 17.6013 4.19419 18.8629 4.25045C20.0352 4.30211 20.6683 4.49894 21.0903 4.66303C21.6107 4.85516 22.0844 5.15991 22.4689 5.55843C22.8675 5.94761 23.1723 6.41646 23.3646 6.93697C23.5288 7.35893 23.7257 7.99641 23.7773 9.16397C23.8336 10.4299 23.8476 10.8095 23.8476 14.0117C23.8476 17.214 23.8336 17.589 23.7774 18.8549Z" fill="white"/>
    <path d="M14.1592 7.68142C10.7589 7.68142 8 10.4401 8 13.8407C8 17.2413 10.7589 20 14.1592 20C17.5597 20 20.3184 17.2413 20.3184 13.8407C20.3184 10.4401 17.5597 7.68142 14.1592 7.68142ZM14.1592 17.8361C11.9532 17.8361 10.1638 16.0469 10.1638 13.8407C10.1638 11.6345 11.9532 9.84537 14.1592 9.84537C16.3653 9.84537 18.1545 11.6345 18.1545 13.8407C18.1545 16.0469 16.3653 17.8361 14.1592 17.8361ZM22 7.43786C22 8.23196 21.3561 8.8758 20.5619 8.8758C19.7678 8.8758 19.124 8.23196 19.124 7.43786C19.124 6.64366 19.7678 6 20.5619 6C21.3561 6 22 6.64361 22 7.43786Z" fill="white"/>
</svg>