<svg width="28" height="28" viewBox="0 0 28 28" fill="none" xmlns="http://www.w3.org/2000/svg">
    <path fill-rule="evenodd" clip-rule="evenodd" d="M13.9199 5.59054L13.92 5.59052V5.59057L19.6636 7.2829L23.6839 17.6599L20.7009 21.8425L17.4734 26.1886H13.92H13.9198H10.3665L7.13891 21.8425L4.15601 17.6599L8.17625 7.2829L13.9198 5.59057V5.59052L13.9199 5.59054Z" fill="#F9F9F1"/>
    <path d="M9.2327 10.2856L13.9323 12.112V22.8922H10.7695L7.85177 18.7494L9.65589 14.8293L7.67358 14.0721L9.2327 10.2856Z" fill="#8E6FE7"/>
    <path d="M18.6093 10.2856L13.9097 12.112V22.8922H17.0725L19.9903 18.7494L18.1862 14.8293L20.1685 14.072L18.6093 10.2856Z" fill="#8E6FE7"/>
    <rect x="9.62744" y="12.112" width="3.6809" height="0.980015" transform="rotate(20.9368 9.62744 12.112)" fill="#F9F9F1"/>
    <rect width="3.6809" height="0.980015" transform="matrix(-0.933975 0.357337 0.357337 0.933975 18.1945 12.112)" fill="#F9F9F1"/>
    <path d="M11.9054 16.433L12.284 15.5643L13.665 16.1434V17.1903H12.7295V16.7671L11.9054 16.433Z" fill="#F9F9F1"/>
    <path d="M15.9368 16.433L15.5581 15.5643L14.1772 16.1434V17.1903H15.1127V16.7671L15.9368 16.433Z" fill="#F9F9F1"/>
    <path fill-rule="evenodd" clip-rule="evenodd" d="M8.95143 20.31L7.85217 18.7492L13.9327 20.8675L20.0128 18.7493L18.9135 20.3101L13.9327 22.0454L8.95143 20.31Z" fill="#F9F9F1"/>
    <rect x="21.786" y="9.63466" width="3.65278" height="5.24735" transform="rotate(-21.0019 21.786 9.63466)" fill="#F9F9F1"/>
    <rect width="3.65278" height="5.24735" transform="matrix(-0.933568 -0.358399 -0.358399 0.933568 6.02356 9.63466)" fill="#F9F9F1"/>
    <path d="M12.5549 3.82639L11.0807 6.6328L12.5549 6.47689L17.1612 6.6328L16.9704 3.24729L14.8172 5.87551L15.1988 2L12.5549 5.87551V3.82639Z" fill="#F9F9F1"/>
</svg>
