<svg width="84" height="77" viewBox="0 0 84 77" fill="none" xmlns="http://www.w3.org/2000/svg">
    <path fill-rule="evenodd" clip-rule="evenodd" d="M41.9651 11.4258V76.9735H30.657L20.386 63.1435L10.8937 49.8333L23.6871 16.8114L41.9651 11.4258ZM41.9651 11.4259V76.9736H53.2732L63.5441 63.1435L73.0364 49.8333L60.2431 16.8114L41.9651 11.4259Z" fill="#8E6FE7"/>
    <path d="M27.0481 26.3666L42.0034 32.1786V66.4836H31.9387L22.6537 53.3003L28.3948 40.8257L22.0866 38.4159L27.0481 26.3666Z" fill="#F9F9F1"/>
    <path d="M56.8878 26.3666L41.9325 32.1786V66.4836H51.9972L61.2822 53.3003L55.5411 40.8257L61.8492 38.4159L56.8878 26.3666Z" fill="#F9F9F1"/>
    <rect x="28.3043" y="32.1786" width="11.7135" height="3.11863" transform="rotate(20.9368 28.3043 32.1786)" fill="#8E6FE7"/>
    <rect width="11.7135" height="3.11863" transform="matrix(-0.933975 0.357337 0.357337 0.933975 55.566 32.1786)" fill="#8E6FE7"/>
    <path d="M35.5535 45.9289L36.7585 43.1647L41.1529 45.0075V48.3388H38.176V46.9921L35.5535 45.9289Z" fill="#8E6FE7"/>
    <path d="M48.3824 45.9289L47.1775 43.1647L42.783 45.0075V48.3388H45.7599V46.9921L48.3824 45.9289Z" fill="#8E6FE7"/>
    <path fill-rule="evenodd" clip-rule="evenodd" d="M42.0028 60.0412L22.6537 53.3003L26.1518 58.267L42.0028 63.7893V60.0412ZM57.8538 58.2671L42.0028 63.7893L42.0028 63.7893V60.0412L42.0028 60.0412L61.3519 53.3003L57.8538 58.2671Z" fill="#8E6FE7"/>
    <rect x="66.9962" y="24.2953" width="11.624" height="16.6983" transform="rotate(-21.0019 66.9962 24.2953)" fill="#8E6FE7"/>
    <rect width="11.624" height="16.6983" transform="matrix(-0.933568 -0.358399 -0.358399 0.933568 16.8364 24.2953)" fill="#8E6FE7"/>
    <path d="M37.6222 5.81199L32.931 14.7426L37.6222 14.2465L52.2807 14.7426L51.6736 3.96917L44.8214 12.3328L46.0357 0L37.6222 12.3328V5.81199Z" fill="#8E6FE7"/>
</svg>
