<svg width="28" height="28" viewBox="0 0 28 28" fill="none" xmlns="http://www.w3.org/2000/svg">
    <path fill-rule="evenodd" clip-rule="evenodd" d="M22.8017 8.49578C22.2245 8.49592 21.6574 8.34457 21.157 8.05684C20.6567 7.76911 20.2406 7.35509 19.9504 6.85617C19.6602 6.35724 19.5061 5.79089 19.5034 5.21372C19.5007 4.63654 19.6496 4.06877 19.9351 3.56716C19.5974 3.49878 19.2566 3.44669 18.9139 3.41108C17.6587 3.27478 16.077 3.27478 14.0579 3.27478H13.9589C11.9398 3.27478 10.3581 3.27478 9.10177 3.41108C7.82125 3.54957 6.78255 3.83755 5.89663 4.48166C5.36012 4.87146 4.88831 5.34327 4.4985 5.87978C3.85439 6.7668 3.56642 7.80331 3.42792 9.08493C3.29163 10.3413 3.29163 11.9229 3.29163 13.9421V14.041C3.29163 16.0602 3.29163 17.6419 3.42792 18.8971C3.56642 20.1787 3.85439 21.2163 4.4985 22.1033C4.88831 22.6399 5.36012 23.1117 5.89663 23.5015C6.78365 24.1456 7.82015 24.4336 9.10177 24.5721C10.3581 24.7083 11.9398 24.7083 13.9589 24.7083H14.0579C16.077 24.7083 17.6587 24.7083 18.9139 24.5721C20.1956 24.4336 21.2332 24.1456 22.1202 23.5015C22.6567 23.1117 23.1285 22.6399 23.5183 22.1033C24.1624 21.2163 24.4504 20.1798 24.5889 18.8982C24.7252 17.6419 24.7252 16.0602 24.7252 14.041V13.9421C24.7252 11.9229 24.7252 10.3413 24.5889 9.08493C24.5532 8.74262 24.5011 8.40222 24.4328 8.06491C23.9514 8.3397 23.3952 8.49578 22.8017 8.49578ZM19.8669 10.1115C20.063 10.2078 20.2129 10.378 20.2836 10.5847C20.3542 10.7915 20.34 11.0178 20.2439 11.214L18.6392 14.4862C17.5147 16.7779 14.2118 16.6658 13.2456 14.3037C12.8169 13.2584 11.355 13.209 10.8582 14.2224L9.25345 17.4946C9.20582 17.5918 9.13951 17.6787 9.0583 17.7503C8.97709 17.8218 8.88257 17.8767 8.78015 17.9118C8.67772 17.9469 8.5694 17.9614 8.46136 17.9546C8.35331 17.9478 8.24767 17.9198 8.15045 17.8721C8.05324 17.8245 7.96635 17.7582 7.89477 17.677C7.82318 17.5958 7.76829 17.5013 7.73323 17.3988C7.69817 17.2964 7.68363 17.1881 7.69043 17.08C7.69724 16.972 7.72526 16.8663 7.77289 16.7691L9.37766 13.4969C10.5021 11.2052 13.8051 11.3173 14.7712 13.6794C15.1999 14.7247 16.6618 14.7742 17.1586 13.7607L18.7634 10.4885C18.8109 10.3912 18.8772 10.3042 18.9585 10.2325C19.0397 10.1608 19.1343 10.1059 19.2368 10.0707C19.3393 10.0356 19.4477 10.0211 19.5558 10.0279C19.6639 10.0347 19.7696 10.0627 19.8669 10.1104V10.1115Z" fill="white"/>
    <path d="M20.6034 5.19831C20.6034 5.78134 20.835 6.34049 21.2473 6.75276C21.6595 7.16502 22.2187 7.39663 22.8017 7.39663C23.3847 7.39663 23.9439 7.16502 24.3562 6.75276C24.7684 6.34049 25 5.78134 25 5.19831C25 4.61529 24.7684 4.05614 24.3562 3.64387C23.9439 3.23161 23.3847 3 22.8017 3C22.2187 3 21.6595 3.23161 21.2473 3.64387C20.835 4.05614 20.6034 4.61529 20.6034 5.19831Z" fill="white"/>
</svg>
