<svg width="30" height="30" viewBox="0 0 30 30" fill="none" xmlns="http://www.w3.org/2000/svg">
    <g clip-path="url(#clip0_853_2237)">
        <path d="M29.7425 20.0855L26.9 17.2428L21.0198 23.123C19.9702 24.1727 18.6527 24.857 17.2218 25.1132L20.9683 28.8597C21.3114 29.2031 21.8681 29.2031 22.2111 28.8597L29.7425 21.3286C30.0858 20.9852 30.0858 20.4286 29.7425 20.0855ZM25.7421 15.9148C26.7329 14.9242 26.7332 13.3122 25.7435 12.3209L25.7401 12.3175C25.4996 12.0764 25.213 11.8862 24.8975 11.7581C25.1677 11.0749 25.2246 9.91951 24.3299 9.02461C24.3276 9.02227 24.3253 9.01974 24.3229 9.01746C24.0833 8.77883 23.7986 8.59038 23.4853 8.46316C23.7554 7.78037 23.8126 6.62473 22.9184 5.73029L22.9168 5.72871C22.6717 5.48355 22.3853 5.29453 22.0734 5.16838C22.3435 4.48518 22.4004 3.32953 21.5057 2.43463L21.5046 2.43369C20.5133 1.4424 18.9006 1.4424 17.9093 2.43369L16.2428 4.09998L17.095 4.95211C18.5149 6.37207 18.5149 8.68242 17.0952 10.1024C16.6173 10.58 16.0302 10.9083 15.3902 11.0646C15.2325 11.7092 14.9006 12.2979 14.4308 12.7666C13.9536 13.2438 13.3674 13.5718 12.7281 13.7283C12.5718 14.3674 12.2436 14.9538 11.7666 15.4308C11.2894 15.908 10.7032 16.236 10.0639 16.3925C9.90762 17.0316 9.57938 17.618 9.10236 18.0952C8.41459 18.7828 7.5 19.1617 6.52723 19.1617C5.55451 19.1617 4.63992 18.7829 3.95209 18.0949L3.09996 17.2428L0.25752 20.0855C-0.0858398 20.4289 -0.0858398 20.9852 0.25752 21.3286L7.78857 28.8597C8.13193 29.2031 8.68834 29.2028 9.0317 28.8597L14.4227 23.4688H15.9416C17.3904 23.4688 18.7525 22.9044 19.777 21.8802L25.7421 15.9148Z" fill="#8E6FE7"/>
        <path d="M5.19524 16.8521C5.93088 17.588 7.12379 17.588 7.85944 16.8521C8.59526 16.1165 8.59526 14.9238 7.85944 14.1879C8.59526 14.9238 9.78799 14.9238 10.5238 14.1879C11.2595 13.4523 11.2595 12.2594 10.5238 11.5238C11.2595 12.2594 12.4524 12.2594 13.1881 11.5238C13.9237 10.7881 13.9237 9.5952 13.1881 8.85955C13.9237 9.5952 15.1166 9.5952 15.8522 8.85955C16.5881 8.12373 16.5881 6.931 15.8522 6.19512L12.0958 2.43873C11.3602 1.70309 10.1673 1.70309 9.43163 2.43873C8.69598 3.17438 8.69598 4.36729 9.43163 5.10293L9.90219 5.57373C9.16655 4.83785 7.97364 4.83785 7.23799 5.57373C6.50241 6.30938 6.50241 7.50229 7.23799 8.23793L8.17942 9.1793C7.44377 8.44365 6.25086 8.44365 5.51522 9.1793C4.77934 9.91494 4.77934 11.1079 5.51522 11.8435L6.45659 12.7851C5.72077 12.0493 4.52803 12.0493 3.79221 12.7851C3.05657 13.5207 3.05657 14.7134 3.79221 15.4493L5.19524 16.8521ZM16.6664 1.19063C16.7955 1.06199 16.9327 0.941598 17.0769 0.830157L16.5629 0.316114C16.4325 0.185691 16.2643 0.099596 16.0823 0.0700154C15.9002 0.0404349 15.7135 0.0688679 15.5485 0.151289L13.3791 1.23598L15.0001 2.85715L16.6664 1.19063Z" fill="white"/>
        <path d="M26.9 17.2428L29.7424 20.0855C30.0858 20.4286 30.0858 20.9852 29.7424 21.3286L22.2111 28.8597C21.868 29.2031 21.3113 29.2031 20.9682 28.8597L17.2217 25.1132C18.6527 24.8571 19.9701 24.1727 21.0197 23.123L26.9 17.2428Z" fill="white"/>
    </g>
    <defs>
        <clipPath id="clip0_853_2237">
            <rect width="30" height="30" fill="white"/>
        </clipPath>
    </defs>
</svg>
