<svg xmlns="http://www.w3.org/2000/svg" width="28" height="28" viewBox="0 0 28 28" fill="none">
    <path d="M21.1094 19.5781C18.7576 19.5781 16.8438 17.6643 16.8438 15.3125C16.8438 12.9607 18.7576 11.0469 21.1094 11.0469H23.4792V9.15106C23.4792 8.10551 22.6289 7.25523 21.5833 7.25523H20.6354V5.3594C20.6354 4.31384 19.7851 3.46356 18.7396 3.46356H5.46875C4.79822 3.46517 4.14986 3.70382 3.6383 4.13731C3.12675 4.57081 2.78495 5.17123 2.67334 5.83241C2.65249 5.91014 2.625 5.98597 2.625 6.07033V20.5261C2.625 22.0939 3.9009 23.3698 5.46875 23.3698H21.5833C22.6289 23.3698 23.4792 22.5195 23.4792 21.474V19.5781H21.1094ZM4.52083 6.30731C4.52083 5.78501 4.9455 5.3594 5.46875 5.3594H18.7396V7.25523H5.46875C4.9455 7.25523 4.52083 6.82961 4.52083 6.30731Z" fill="white"/>
    <path d="M24.6641 12.4688H21.1094C19.5415 12.4688 18.2656 13.7447 18.2656 15.3125C18.2656 16.8804 19.5415 18.1563 21.1094 18.1563H24.6641C24.8526 18.1563 25.0334 18.0814 25.1668 17.9481C25.3001 17.8147 25.375 17.6339 25.375 17.4453V13.1797C25.375 12.9912 25.3001 12.8103 25.1668 12.677C25.0334 12.5437 24.8526 12.4688 24.6641 12.4688ZM21.1094 16.2604C20.858 16.2604 20.6169 16.1606 20.4391 15.9828C20.2613 15.805 20.1615 15.5639 20.1615 15.3125C20.1615 15.0611 20.2613 14.82 20.4391 14.6423C20.6169 14.4645 20.858 14.3646 21.1094 14.3646C21.3608 14.3646 21.6019 14.4645 21.7797 14.6423C21.9574 14.82 22.0573 15.0611 22.0573 15.3125C22.0573 15.5639 21.9574 15.805 21.7797 15.9828C21.6019 16.1606 21.3608 16.2604 21.1094 16.2604Z" fill="white"/>
</svg>